
<svg xmlns="http://www.w3.org/2000/svg" version="1.1" xmlns:xlink="http://www.w3.org/1999/xlink" preserveAspectRatio="none" x="0px" y="0px" width="310px" height="80px" viewBox="0 0 310 80">
<defs>
<g id="Layer0_0_FILL">
<path fill="#FFFFFF" stroke="none" d="
M 268.95 93.1
L 269 93
Q 269.7 93 269.75 92.1
L 269.75 90.1
Q 269.6 89.2 269.05 89.2
L 249.25 89.2
Q 249.05 89.2 248.85 89.45 248.55 89.8 248.55 90.4
L 248.55 124
Q 248.55 125.2 249.35 125.2
L 268.85 125.2
Q 269.55 125.2 269.75 124.3
L 269.75 122.3
Q 269.6 121.4 269.05 121.4
L 253.05 121.4 253.05 109.3 269.05 109.3
Q 269.6 109.3 269.75 108.4
L 269.75 106.4
Q 269.6 105.5 269.05 105.5
L 253.05 105.5 253.05 93.1 268.95 93.1 Z"/>
</g>

<g id="Layer0_1_FILL">
<path fill="#FFFFFF" stroke="none" d="
M 209.8 89.35
Q 209.3 89.35 209.3 89.95
L 209.3 124.65
Q 209.3 124.85 209.55 125.1 209.9 125.35 210.5 125.35
L 212.5 125.35
Q 213.65 125.35 213.65 124.5
L 213.65 99.35 225.35 115.5 225.75 115.5 237.45 99.35 237.45 124.65
Q 237.45 124.85 237.7 125.1 238.05 125.35 238.65 125.35
L 240.85 125.35
Q 242.15 125.35 242.05 124.45
L 242.05 89.95
Q 242.05 89.35 241.55 89.35
L 240.55 89.35
Q 240.15 89.35 239.85 89.85
L 225.65 109.45 211.5 89.85
Q 211.05 89.35 210.8 89.35
L 209.8 89.35 Z"/>
</g>

<g id="Layer0_2_FILL">
<path fill="#FFFFFF" stroke="none" d="
M 301 91.55
Q 296.8 88.8 291.75 88.8 284.45 88.8 279.3 94.2 274.15 99.6 274.15 107.2 274.15 114.8 279.3 120.2 284.45 125.6 291.75 125.6 299.1 125.6 304.25 120.2 309.35 114.8 309.35 107.2
L 309.35 106.5
Q 309.35 105.4025390625 308.35 105.35
L 293.35 105.35
Q 292.75 105.35 292.65 106.45
L 292.65 108.1
Q 292.65 108.9 293.25 109.2
L 305.5 109.2
Q 304.85 114.6 300.9 118.2 297 121.8 291.75 121.8 286.4 121.8 282.25 117.6 278 113.25 278 107.3 278 101.25 282.05 96.95 286.1 92.7 291.75 92.7 296.85 92.7 299.3 94.35 300.6 95.3 303 98.8
L 303.2 99.05
Q 303.5 99.3 303.85 99.3
L 307.1 99.3
Q 307.5 99.3 307.5 98.8 307.5 98.7 307.35 98.6 305.05 94.15 301 91.55 Z"/>
</g>

<g id="Layer0_3_FILL">
<path fill="#FFFFFF" stroke="none" d="
M 326 89
Q 325.65 89 325.5 89.45
L 309.1 124.5
Q 309.1 125.2 309.85 125.35
L 312.65 125.35
Q 313.35 125.35 313.55 124.95
L 317.35 116.45 335.85 116.45 339.75 124.95
Q 339.9 125.2 340.65 125.35
L 343.15 125.35
Q 343.75 125.35 343.95 125 344.1 124.7 343.95 124.5
L 343.75 124.5 343.75 124.45 327.75 89.45 327.25 89 326 89
M 326.35 95.95
L 333.85 112.5 319 112.5 326.35 95.95 Z"/>
</g>

<g id="Layer0_4_FILL">
<path fill="#FFFFFF" stroke="none" d="
M 409.7 89.4
Q 409.45 89.2 409.2 89.2
L 388.6 89.2
Q 387.9 89.2 387.9 90.2
L 387.9 124.3
Q 387.9 125.3 388.8 125.3
L 409.3 125.3
Q 409.85 125.3 410 124.6
L 410 124.4 409.85 124.45 409.85 119
Q 409.85 118.2 409.15 118.2
L 395.55 118.2 395.55 109.9 408.75 109.9
Q 409.3 109.9 409.5 109.2
L 409.5 104.2
Q 409.5 103.4 408.7 103.4
L 395.7 103.4 395.7 95.9 409.3 95.9
Q 410 95.9 410 95
L 410 90.2
Q 410 89.7 409.7 89.4 Z"/>
</g>

<g id="Layer0_5_FILL">
<path fill="#FFFFFF" stroke="none" d="
M 374.35 90.9
Q 370 88.15 364.9 88.15 357.3 88.15 351.95 93.75 346.7 99.25 346.6 107.05 346.6 114.85 351.9 120.4 357.25 126 364.9 126.05 372.5 126.05 377.85 120.45 383.1 114.9 383.1 107.05
L 383.1 104.25
Q 383.1 103.36640625 382.4 103.35
L 366.6 103.35
Q 365.8 103.35 365.7 104.35
L 365.7 109.85
Q 365.7 110.3 366 110.55 366.2 110.75 366.4 110.75
L 375.2 110.75
Q 374.05 114.3 371.25 116.45 368.4 118.65 364.9 118.65 361.15 118.65 357.7 115.3 354 111.7 354 107.05 354 102.2 357.25 98.8 360.45 95.45 364.9 95.45 368.7 95.45 369.8 96.1 370.55 96.55 371.7 98.05
L 372.1 98.3
Q 372.6 98.6 373.1 98.65
L 380.2 98.65
Q 380.9 98.65 380.9 98.05 378.6 93.55 374.35 90.9 Z"/>
</g>

<g id="Layer0_6_FILL">
<path fill="#FFFFFF" stroke="none" d="
M 415 89.1
Q 414.75 89.25 414.75 89.6
L 414.75 124.5
Q 414.75 125.05 415.55 125.2
L 421.65 125.2
Q 422.55 125.2 422.55 124.3
L 422.55 104.5 442.55 124.85
Q 442.95 125.25 443.15 125.25
L 444.65 125.25
Q 445.05 125.25 445.15 124.75
L 445.1 124.7 445.1 89.8
Q 445.1 89.6 444.9 89.4 444.65 89.1 444.2 89.1
L 438.5 89.1
Q 437.6 89.1 437.6 89.95
L 437.6 109.85 417.6 89.45 417 89 415.25 89
Q 415.15 89 415 89.1 Z"/>
</g>

<g id="Layer0_7_FILL">
<path fill="#FFFFFF" stroke="none" d="
M 342.55 82.4
Q 342.2 82.1 341.6 82.1
L 339.6 82.1
Q 338.8 82.1 338.5 82.55
L 338.35 83 338.35 100.2
Q 338.35 100.4 338.6 100.65 339 100.9 339.6 100.9
L 341.6 100.9
Q 342.85 100.9 342.8 100
L 342.8 82.8
Q 342.8 82.6 342.55 82.4 Z"/>
</g>

<g id="Layer0_8_FILL">
<path fill="#FFFFFF" stroke="none" d="
M 166.15 71.45
Q 164.8 71.45 163.85 72.45 162.85 73.4 162.85 74.75
L 162.85 81.95 165.05 81.95
Q 166.85 81.95 168.15 83.2 169.45 84.5 169.45 86.35
L 169.5 86.35 169.5 93.35 180 93.35 180 87.85
Q 180 86.8 180.75 86.15 181.45 85.45 182.5 85.45
L 184.8 85.45 184.8 74.75
Q 184.8 73.4 183.85 72.45 182.85 71.45 181.5 71.45
L 166.15 71.45 Z"/>
</g>

<g id="Layer0_9_FILL">
<path fill="#FFFFFF" stroke="none" d="
M 181.65 93.45
L 181.6 93.35 180.1 93.35 180.1 95.25
Q 180.1 96.3 180.85 97.05 181.55 97.75 182.6 97.75
L 190 97.75
Q 191 97.75 191.75 97.05 192.5 96.3 192.5 95.25
L 192.5 87.95
Q 192.5 86.9 191.75 86.2 191.05 85.5 190 85.5
L 185 85.5 185 90.1
Q 185 91.5 184 92.45 183.05 93.45 181.65 93.45 Z"/>
</g>

<g id="Layer0_10_FILL">
<path fill="#FFFFFF" stroke="none" d="
M 169.6 93.35
L 166.3 93.35
Q 164.95 93.35 164 92.35 163 91.4 163 90
L 163 81.95 141.1 81.95
Q 139.3 81.95 138 83.2 136.7 84.5 136.7 86.35
L 136.7 110.35
Q 136.7 112.15 138 113.45 139.3 114.75 141.1 114.75
L 153.4 114.75 153.4 109.45
Q 153.4 107.2 155 105.6 156.6 103.95 158.9 103.95
L 169.6 103.95 169.6 93.35 Z"/>
</g>

<g id="Layer0_11_FILL">
<path fill="#FFFFFF" stroke="none" d="
M 197.1 109.45
Q 197.1 107.2 195.5 105.6 193.9 103.95 191.6 103.95
L 169.5 103.95 169.5 110.35
Q 169.5 112.15 168.2 113.45 166.9 114.75 165.1 114.75
L 153.3 114.75 153.3 142.25
Q 153.3 144.55 154.85 146.15 156.45 147.75 158.8 147.75
L 191.6 147.75
Q 193.85 147.75 195.5 146.15 197.1 144.55 197.1 142.25
L 197.1 109.45 Z"/>
</g>
</defs>

<g transform="matrix( 1, 0, 0, 1, -136.7,-71.45) ">
<use xlink:href="#Layer0_0_FILL"/>
</g>

<g transform="matrix( 1, 0, 0, 1, -136.7,-71.45) ">
<use xlink:href="#Layer0_1_FILL"/>
</g>

<g transform="matrix( 1, 0, 0, 1, -136.7,-71.45) ">
<use xlink:href="#Layer0_2_FILL"/>
</g>

<g transform="matrix( 1, 0, 0, 1, -136.7,-71.45) ">
<use xlink:href="#Layer0_3_FILL"/>
</g>

<g transform="matrix( 1, 0, 0, 1, -136.7,-71.45) ">
<use xlink:href="#Layer0_4_FILL"/>
</g>

<g transform="matrix( 1, 0, 0, 1, -136.7,-71.45) ">
<use xlink:href="#Layer0_5_FILL"/>
</g>

<g transform="matrix( 1, 0, 0, 1, -136.7,-71.45) ">
<use xlink:href="#Layer0_6_FILL"/>
</g>

<g transform="matrix( 1, 0, 0, 1, -136.7,-71.45) ">
<use xlink:href="#Layer0_7_FILL"/>
</g>

<g transform="matrix( 1, 0, 0, 1, -136.7,-71.45) ">
<use xlink:href="#Layer0_8_FILL"/>
</g>

<g transform="matrix( 1, 0, 0, 1, -136.7,-71.45) ">
<use xlink:href="#Layer0_9_FILL"/>
</g>

<g transform="matrix( 1, 0, 0, 1, -136.7,-71.45) ">
<use xlink:href="#Layer0_10_FILL"/>
</g>

<g transform="matrix( 1, 0, 0, 1, -136.7,-71.45) ">
<use xlink:href="#Layer0_11_FILL"/>
</g>
</svg>
