<?xml version="1.0" encoding="utf-8"?>
<!-- Generator: Adobe Illustrator 12.0.1, SVG Export Plug-In . SVG Version: 6.00 Build 51448)  -->
<!DOCTYPE svg PUBLIC "-//W3C//DTD SVG 1.1 Basic//EN" "http://www.w3.org/Graphics/SVG/1.1/DTD/svg11-basic.dtd" [
	<!ENTITY ns_svg "http://www.w3.org/2000/svg">
	<!ENTITY ns_xlink "http://www.w3.org/1999/xlink">
]>
<svg  version="1.1" baseProfile="basic" xmlns="&ns_svg;" xmlns:xlink="&ns_xlink;" width="228.173" height="49.599"
	 viewBox="0 0 228.173 49.599" overflow="visible" enable-background="new 0 0 228.173 49.599" xml:space="preserve">
<g id="Hintergrund">
</g>
<g id="Hilfslinien">
</g>
<g id="Vordergrund">
	<path fill="#006E32" d="M35.174,11.829V0c0,0-23.019,15.515-27.841,18.777c-3.27,2.212-3.895,5.193-3.895,6.419
		c0,1.226,0.336,3.702,2.404,6.323C8.583,29.692,35.174,11.829,35.174,11.829z"/>
	<path fill="#006E32" d="M29.596,18.32L0,37.962v11.636c0,0,25.341-16.877,28.274-18.825c2.933-1.948,3.597-4.592,3.583-6.756
		C31.832,20.556,29.596,18.32,29.596,18.32z"/>
	<path fill="#231F20" d="M53.59,20.652l2.236-4.063c0,0-2.067-1.274-6.035-1.274s-8.354,1.923-8.415,6.611
		c-0.048,3.75,3.222,4.304,5.241,4.905s3.005,0.673,3.005,1.923s-1.563,1.432-2.067,1.442c-2.26,0.048-5.121-1.899-5.121-1.899
		l-2.428,4.447c0,0,3.078,2.164,7.453,2.164s8.919-1.947,8.919-6.996c0-3.847-3.39-4.809-5.722-5.241
		c-2.163-0.401-2.789-0.697-2.789-1.683s1.202-1.226,2.236-1.226C52.268,19.763,53.59,20.652,53.59,20.652z"/>
	<polygon fill="#231F20" points="58.976,34.332 65.611,34.332 65.611,21.35 69.218,21.35 69.218,15.892 65.611,15.892 
		65.611,10.435 59,10.435 59,15.892 56.836,15.892 56.836,21.35 58.976,21.35 	"/>
	<path fill="#231F20" d="M69.674,34.308h6.612c0,0,0-4.808,0-8.367c0-3.558,2.5-4.736,4.616-4.736c2.115,0,2.717,0.577,2.717,0.577
		v-6.203c-6.083,0-7.309,3.462-7.309,3.462v-3.15h-6.612L69.674,34.308z"/>
	<path fill="#231F20" d="M173.201,21.199c-2.909,0-4.159,2.044-4.159,4.135c0,2.092,1.106,4.111,4.231,4.111
		s4.279-2.068,4.279-4.183C177.552,23.146,176.11,21.199,173.201,21.199z M177.263,32.475c0,0-1.731,2.717-5.674,2.717
		s-9.328-3.078-9.328-9.785s5.241-9.929,9.304-9.929s5.866,2.572,5.866,2.572v-2.02h6.467v18.585h-6.635V32.475z"/>
	<path fill="#231F20" d="M114.104,15.892h-6.636c0,0,0,7.573,0,11.036c0,3.462,1.082,8.126,10.194,8.126s9.4-5.987,9.4-7.694
		s0-11.324,0-11.324h-6.612c0,0,0,8.223,0,10.314c0,2.092-0.745,3.534-3.173,3.534s-3.198-1.418-3.198-3.198
		C114.08,24.908,114.104,15.892,114.104,15.892z"/>
	<path fill="#231F20" d="M136.295,16.012h-6.612v18.464h6.612c0,0,0-8.03,0-10.507c0-2.476,1.37-3.486,2.933-3.486
		c1.563,0,2.717,1.154,2.717,3.534s0,10.434,0,10.434h6.611c0,0,0-7.381,0-9.761c0-2.38,1.106-4.039,3.102-4.039
		s2.692,1.395,2.692,3.462s0,10.362,0,10.362h6.492c0,0,0-8.535,0-12.814c0-4.28-3.078-6.203-6.155-6.203
		c-3.078,0-5.77,2.284-6.275,3.847c-0.265-1.539-2.717-3.847-6.396-3.847c-3.678,0-5.746,3.102-5.746,3.102L136.295,16.012z"/>
	<path fill="#231F20" d="M94.173,21.061c-2.909,0-4.159,2.043-4.159,4.135s1.106,4.111,4.231,4.111c3.126,0,4.28-2.067,4.28-4.183
		S97.083,21.061,94.173,21.061z M98.212,32.337c0,0-1.731,2.717-5.674,2.717s-9.329-3.078-9.329-9.785
		c0-6.708,5.241-9.93,9.305-9.93c4.063,0,5.866,2.572,5.866,2.572v-2.02h6.467v18.585h-6.636V32.337z"/>
	<path fill="#231F20" d="M208.74,34.62V16.044h6.462v2.677c0,0,1.593-3.115,5.886-3.115s7.085,2.169,7.085,7.592s0,11.422,0,11.422
		h-6.601c0,0,0-8.354,0-10.476c0-2.123-0.831-3.369-3.023-3.369c-2.193,0-3.347,1.338-3.347,4.615c0,3.277,0,9.23,0,9.23H208.74z"/>
	<path fill="#231F20" d="M186.669,34.62V16.044h6.463v2.677c0,0,1.592-3.115,5.885-3.115s7.086,2.169,7.086,7.592s0,11.422,0,11.422
		h-6.601c0,0,0-8.354,0-10.476c0-2.123-0.831-3.369-3.023-3.369c-2.193,0-3.347,1.338-3.347,4.615c0,3.277,0,9.23,0,9.23H186.669z"
		/>
</g>
</svg>
